# xmcd
#
# Track frame offsets:
#	150
#	18589
#	35963
#	46520
#	67151
#	87059
#	101675
#	115676
#	129775
#	139286
#	156749
#	178083
#	198095
#	213863
#	226267
#	243733
#	261718
#	286723
#	298423
#	315213
#
# Disc length: 4543 seconds
#
# Revision: 1
# Processed by: cddbd v1.5.2PL0 Copyright (c) Steve Scherf et al.
# Submitted via: EasyCDDAExtractor 16.0.6.1
#
DISCID=2a11bd14
DTITLE=Pure Prairie League - C-104 Live! Takin' The Stage
DYEAR=1900
DGENRE=Country
TTITLE0=Kansas City Southern
TTITLE1=Harvest
TTITLE2=I'll Change Your Flat Tire, Merle
TTITLE3=Lucille Crawfield
TTITLE4=Two Lane Highway
TTITLE5=Country Song
TTITLE6=Out In The Street
TTITLE7=Dark Colours
TTITLE8=That'll Be The Day
TTITLE9=Sun Shone Lightly
TTITLE10=Heart Of Her Own
TTITLE11=Amie
TTITLE12=Pickin' To Beat The Devil
TTITLE13=Kentucky Moonshine
TTITLE14=Fade Away
TTITLE15=Feelin' Of Love
TTITLE16=Dance
TTITLE17=Louise (What I Did)
TTITLE18=All The Lonesome Cowboys
TTITLE19=Came Through
EXTD=
EXTT0=
EXTT1=
EXTT2=
EXTT3=
EXTT4=
EXTT5=
EXTT6=
EXTT7=
EXTT8=
EXTT9=
EXTT10=
EXTT11=
EXTT12=
EXTT13=
EXTT14=
EXTT15=
EXTT16=
EXTT17=
EXTT18=
EXTT19=
PLAYORDER=
